# xmcd CD database file
#
# Track frame offsets:
#	150
#	8980
#	31340
#	55035
#	70382
#	89830
#	109292
#	126592
#	130005
#	147397
#	162625
#	180342
#	198582
#	223127
#
# Disc length: 3270 seconds
#
# Revision: 0
# Processed by: cddbd v1.5.1PL0 Copyright (c) Steve Scherf et al.
# Submitted via: CDex 1.51
#
DISCID=db0cc40e
DTITLE=LITTLE - Life
DYEAR=2005
DGENRE=Hip-Hop
TTITLE0=01 Little
TTITLE1=02 I Sing , I Say
TTITLE2=03 はつ恋の 〜What's Going On〜 Feat,トータス松本
TTITLE3=04 Unko Shit !
TTITLE4=05 Ｒａｐが好き
TTITLE5=06 小さな島で健やかに
TTITLE6=07 踊らソカ Featuring Keyco , Corn Head
TTITLE7=08 姫御前
TTITLE8=09 愛幻夢恋絵巻
TTITLE9=10 Youth and Youth feat.童子-T
TTITLE10=11 Hard硬派 Part2 Featuring Zingi
TTITLE11=12 聖者が街にやってくる
TTITLE12=13 I Love You Miss Microphone Featuring DJ Kaori
TTITLE13=14 Lifeline Baby
EXTD=YEAR: 2005
EXTT0=
EXTT1=
EXTT2=
EXTT3=
EXTT4=
EXTT5=
EXTT6=
EXTT7=
EXTT8=
EXTT9=
EXTT10=
EXTT11=
EXTT12=
EXTT13=
PLAYORDER=
